<mxfile host="app.diagrams.net" modified="2024-03-08T17:49:08.844Z" agent="Mozilla/5.0 (Windows NT 10.0; Win64; x64) AppleWebKit/537.36 (KHTML, like Gecko) Chrome/122.0.0.0 Safari/537.36" etag="J-DW6J5aKWptTeHzYgMj" version="24.0.2" type="github">
  <diagram name="Página-1" id="RaQwVHnbfX2_bPzKqnFZ">
    <mxGraphModel dx="989" dy="520" grid="1" gridSize="10" guides="1" tooltips="1" connect="1" arrows="1" fold="1" page="1" pageScale="1" pageWidth="827" pageHeight="1169" math="0" shadow="0">
      <root>
        <mxCell id="0" />
        <mxCell id="1" parent="0" />
        <mxCell id="bwY_ntw6u-MLQKUI9M8l-1" value="Usuário" style="shape=umlActor;verticalLabelPosition=bottom;verticalAlign=top;html=1;outlineConnect=0;" vertex="1" parent="1">
          <mxGeometry x="40" y="100" width="70" height="150" as="geometry" />
        </mxCell>
        <mxCell id="bwY_ntw6u-MLQKUI9M8l-2" value="Funcionário" style="shape=umlActor;verticalLabelPosition=bottom;verticalAlign=top;html=1;outlineConnect=0;" vertex="1" parent="1">
          <mxGeometry x="40" y="320" width="70" height="150" as="geometry" />
        </mxCell>
        <mxCell id="bwY_ntw6u-MLQKUI9M8l-3" value="" style="whiteSpace=wrap;html=1;aspect=fixed;" vertex="1" parent="1">
          <mxGeometry x="150" y="60" width="500" height="500" as="geometry" />
        </mxCell>
        <mxCell id="bwY_ntw6u-MLQKUI9M8l-4" value="Veterinário&lt;div&gt;&lt;br&gt;&lt;/div&gt;" style="shape=umlActor;verticalLabelPosition=bottom;verticalAlign=top;html=1;outlineConnect=0;" vertex="1" parent="1">
          <mxGeometry x="720" y="220" width="70" height="140" as="geometry" />
        </mxCell>
        <mxCell id="bwY_ntw6u-MLQKUI9M8l-7" value="&lt;font style=&quot;font-size: 16px;&quot;&gt;Zoológico&lt;/font&gt;" style="text;html=1;align=center;verticalAlign=middle;whiteSpace=wrap;rounded=0;" vertex="1" parent="1">
          <mxGeometry x="370" y="80" width="60" height="30" as="geometry" />
        </mxCell>
        <mxCell id="bwY_ntw6u-MLQKUI9M8l-8" value="Ver Programação de eventos" style="ellipse;whiteSpace=wrap;html=1;" vertex="1" parent="1">
          <mxGeometry x="260" y="150" width="130" height="50" as="geometry" />
        </mxCell>
        <mxCell id="bwY_ntw6u-MLQKUI9M8l-10" value="" style="endArrow=none;html=1;rounded=0;entryX=0;entryY=0.5;entryDx=0;entryDy=0;exitX=1;exitY=0.3333333333333333;exitDx=0;exitDy=0;exitPerimeter=0;" edge="1" parent="1" source="bwY_ntw6u-MLQKUI9M8l-1" target="bwY_ntw6u-MLQKUI9M8l-8">
          <mxGeometry width="50" height="50" relative="1" as="geometry">
            <mxPoint x="240" y="300" as="sourcePoint" />
            <mxPoint x="290" y="250" as="targetPoint" />
          </mxGeometry>
        </mxCell>
        <mxCell id="bwY_ntw6u-MLQKUI9M8l-11" value="Alterar&lt;span style=&quot;background-color: initial;&quot;&gt;&amp;nbsp;programação de eventos&lt;/span&gt;" style="ellipse;whiteSpace=wrap;html=1;" vertex="1" parent="1">
          <mxGeometry x="255" y="277.5" width="140" height="65" as="geometry" />
        </mxCell>
        <mxCell id="bwY_ntw6u-MLQKUI9M8l-12" value="" style="endArrow=none;html=1;rounded=0;entryX=0;entryY=0.5;entryDx=0;entryDy=0;exitX=1;exitY=0.3333333333333333;exitDx=0;exitDy=0;exitPerimeter=0;" edge="1" parent="1" source="bwY_ntw6u-MLQKUI9M8l-2" target="bwY_ntw6u-MLQKUI9M8l-11">
          <mxGeometry width="50" height="50" relative="1" as="geometry">
            <mxPoint x="120" y="160" as="sourcePoint" />
            <mxPoint x="270" y="185" as="targetPoint" />
          </mxGeometry>
        </mxCell>
        <mxCell id="bwY_ntw6u-MLQKUI9M8l-13" value="Gerenciar disponibilidade dos animais no Zoológico" style="ellipse;whiteSpace=wrap;html=1;" vertex="1" parent="1">
          <mxGeometry x="255" y="440" width="140" height="65" as="geometry" />
        </mxCell>
        <mxCell id="bwY_ntw6u-MLQKUI9M8l-14" value="" style="endArrow=none;html=1;rounded=0;entryX=0;entryY=0.5;entryDx=0;entryDy=0;exitX=1;exitY=0.3333333333333333;exitDx=0;exitDy=0;exitPerimeter=0;" edge="1" parent="1" source="bwY_ntw6u-MLQKUI9M8l-2" target="bwY_ntw6u-MLQKUI9M8l-13">
          <mxGeometry width="50" height="50" relative="1" as="geometry">
            <mxPoint x="120" y="380" as="sourcePoint" />
            <mxPoint x="265" y="338" as="targetPoint" />
          </mxGeometry>
        </mxCell>
        <mxCell id="bwY_ntw6u-MLQKUI9M8l-15" value="" style="endArrow=none;html=1;rounded=0;exitX=1;exitY=0.3333333333333333;exitDx=0;exitDy=0;exitPerimeter=0;entryX=0;entryY=0.5;entryDx=0;entryDy=0;" edge="1" parent="1" source="bwY_ntw6u-MLQKUI9M8l-2" target="bwY_ntw6u-MLQKUI9M8l-8">
          <mxGeometry width="50" height="50" relative="1" as="geometry">
            <mxPoint x="120" y="160" as="sourcePoint" />
            <mxPoint x="270" y="185" as="targetPoint" />
          </mxGeometry>
        </mxCell>
        <mxCell id="bwY_ntw6u-MLQKUI9M8l-16" value="" style="endArrow=none;html=1;rounded=0;entryX=0;entryY=0.3333333333333333;entryDx=0;entryDy=0;entryPerimeter=0;exitX=1;exitY=0.5;exitDx=0;exitDy=0;" edge="1" parent="1" source="bwY_ntw6u-MLQKUI9M8l-17" target="bwY_ntw6u-MLQKUI9M8l-4">
          <mxGeometry width="50" height="50" relative="1" as="geometry">
            <mxPoint x="120" y="160" as="sourcePoint" />
            <mxPoint x="270" y="185" as="targetPoint" />
          </mxGeometry>
        </mxCell>
        <mxCell id="bwY_ntw6u-MLQKUI9M8l-17" value="Reportar status dos animais" style="ellipse;whiteSpace=wrap;html=1;" vertex="1" parent="1">
          <mxGeometry x="470" y="342.5" width="140" height="65" as="geometry" />
        </mxCell>
        <mxCell id="bwY_ntw6u-MLQKUI9M8l-20" value="&amp;lt;&amp;lt;extend&amp;gt;&amp;gt;" style="endArrow=open;endSize=12;dashed=1;html=1;rounded=0;exitX=0;exitY=0.5;exitDx=0;exitDy=0;entryX=1;entryY=0.5;entryDx=0;entryDy=0;" edge="1" parent="1" source="bwY_ntw6u-MLQKUI9M8l-17" target="bwY_ntw6u-MLQKUI9M8l-13">
          <mxGeometry width="160" relative="1" as="geometry">
            <mxPoint x="190" y="170" as="sourcePoint" />
            <mxPoint x="400" y="430" as="targetPoint" />
          </mxGeometry>
        </mxCell>
        <mxCell id="bwY_ntw6u-MLQKUI9M8l-21" value="Gerenciar rotina de alimentação dos animais" style="ellipse;whiteSpace=wrap;html=1;" vertex="1" parent="1">
          <mxGeometry x="480" y="190" width="140" height="60" as="geometry" />
        </mxCell>
        <mxCell id="bwY_ntw6u-MLQKUI9M8l-23" value="" style="endArrow=none;html=1;rounded=0;exitX=1;exitY=0.5;exitDx=0;exitDy=0;entryX=0;entryY=0.3333333333333333;entryDx=0;entryDy=0;entryPerimeter=0;" edge="1" parent="1" source="bwY_ntw6u-MLQKUI9M8l-21" target="bwY_ntw6u-MLQKUI9M8l-4">
          <mxGeometry width="50" height="50" relative="1" as="geometry">
            <mxPoint x="640" y="363" as="sourcePoint" />
            <mxPoint x="710" y="270" as="targetPoint" />
          </mxGeometry>
        </mxCell>
      </root>
    </mxGraphModel>
  </diagram>
</mxfile>
